<?xml version="1.0" encoding="UTF-8"?>
<svg id="Layer_2" data-name="Layer 2" xmlns="http://www.w3.org/2000/svg" viewBox="0 0 1016.27 217.33">
  <defs>
    <style>
      .cls-1 {
        fill: #fff;
      }
    </style>
  </defs>
  <g id="Layer_1-2" data-name="Layer 1">
    <g id="M1Kr9U.tif">
      <g>
        <path class="cls-1" d="M314.04,67.71h-37.66v-22.66c0-.19-1.56-2.74-1.92-3.19-4.77-6.07-13.66-4.13-16.3,2.85l-.26,127.3c1.9,7.68,11.5,10.3,16.55,3.87.35-.45,1.92-3,1.92-3.19v-45.63h-5.74v-37.02h43.4v122.54h-37.02l2.56-6.69c-3.34-1.86-4.31,1.92-6.08,3.49-21.43,19.12-54.81,1.15-53.32-27.09,2.39-46.36-3.07-95.74,0-141.74,2.22-33.18,33.86-45.84,63.35-38.4,14.97,3.78,30.51,20.54,30.51,36.51v29.04h.01Z"/>
        <path class="cls-1" d="M576.26.89c27.65-2.38,50.2,6.98,55.05,36.48v137.26c-7.04,55.97-86.17,56.01-93.24,0,2.4-44.6-3.11-92.41,0-136.63,1.42-20.27,18.4-35.41,38.2-37.12h-.01ZM582.6,38.51c-4.72.77-6.8,4.67-7.49,9.1l-.02,121.93c.63,12.75,17.69,13.78,19.18.61l.02-121.93c-.6-6.74-4.69-10.85-11.68-9.71h-.01Z"/>
        <path class="cls-1" d="M682.22.89c27.65-2.38,50.2,6.98,55.05,36.48v137.26c-7.04,55.97-86.17,56.01-93.24,0,2.4-44.6-3.11-92.41,0-136.63,1.42-20.27,18.4-35.41,38.2-37.12h-.01ZM688.56,38.51c-4.72.77-6.8,4.67-7.49,9.1l-.02,121.93c.63,12.75,17.69,13.78,19.18.61l.02-121.93c-.6-6.74-4.69-10.85-11.68-9.71h-.01Z"/>
        <path class="cls-1" d="M525.32,67.71h-37.02v-21.38c0-.98-2.25-4.83-3.23-5.71-6.07-5.42-15.52-1.03-15.92,6.98l.06,123.12c1.52,11.03,16.3,11.85,18.81,1.05l.28-43.12-1.05-1.51-5.34-.09v-37.02h43.4v122.54h-36.38l1.91-7.02c-3.75-.77-4.87,3.15-7.71,5.37-13.23,10.32-36.52,6.95-45.39-7.48-3.24-5.28-5.25-12.43-5.65-18.6-3.1-47.52,2.41-98.35,0-146.21,3.01-46.22,75.17-51.92,90.52-11.94.76,1.99,2.7,7.63,2.7,9.42v31.59h.01Z"/>
        <path class="cls-1" d="M1016.27,27.56c0,14.41-11.68,26.09-26.1,26.09s-26.1-11.68-26.1-26.09,11.68-26.09,26.1-26.09,26.1,11.68,26.1,26.09ZM1012.18,27.57c0-12.15-9.85-21.99-21.99-21.99s-21.99,9.85-21.99,21.99,9.85,21.99,21.99,21.99,21.99-9.85,21.99-21.99Z"/>
        <g>
          <path class="cls-1" d="M949.16,74.73h-37.66v-29.68c0-.67-2.41-3.82-3.17-4.49-5.58-4.86-14.48-1.49-15.35,5.75-1.41,11.69.14,24.53,7.69,33.82,21.38,26.3,46.33,37.18,48.52,75.94,2.26,40.07-10.83,64.2-54.59,60.97-18.92-1.4-39.26-17.95-39.26-37.97v-36.06h37.66v29.68c0,.67,2.41,3.82,3.17,4.49,5.58,4.86,14.48,1.49,15.35-5.75.6-4.99.27-15.37-.84-20.25-3.33-14.51-27.77-34.22-38.09-46.16-16.19-18.72-19.1-40.89-17.24-65.07,2.51-32.83,34.21-45.14,63.31-37.79,14.97,3.78,30.51,20.54,30.51,36.51v36.06h-.01Z"/>
          <path class="cls-1" d="M749.37,212.59V5.17h64.15c13.87,0,30.92,20.09,29.71,34.11-2.3,45.56,2.95,93.96,0,139.19-.91,13.97-8.76,26.38-21.94,31.68-1.5.6-6.54,2.44-7.78,2.44h-64.15.01ZM787.03,175.57h10.53c2.75,0,8.3-4.66,7.99-7.96l-.31-119.06c-.36-2.57-5.53-6.36-7.68-6.36h-10.53v133.39h0Z"/>
        </g>
        <path class="cls-1" d="M995.12,14.1h5.74v28.72h-16.92c-.93,0-4.05-1.93-4.8-2.86-4.2-5.21-.91-11.97,5.12-13.41-3.93-3.39-6.38-8.01-8.93-12.44l7.02.32c2.99,3.38,5.9,12.17,11.23,11.78.58-.04,1.53-.53,1.53-.93v-11.17h.01ZM985.22,37.71h9.89v-7.02c-2.84.26-10.29-1.15-11.37,2.36-.44,1.43-.04,4.23,1.48,4.66Z"/>
        <path class="cls-1" d="M364.34.89c28.19-2.63,53.61,8.58,55.69,39.67,2.85,42.69-2.21,88.51,0,131.52-5.01,59.29-88.83,59.36-93.88,0,2.21-43.02-2.86-88.84,0-131.52,1.42-21.3,16.8-37.68,38.2-39.67h-.01ZM370.68,38.5c-3.22.67-6.56,4.49-6.86,7.81l-.02,124.5c1.09,11.24,16.65,11.56,18.56.62l.02-124.5c-.53-5.99-5.84-9.65-11.7-8.43Z"/>
        <g>
          <path class="cls-1" d="M210.64,212.59h-40.85l-15.28-77.58-2.59-.28v77.86h-37.66V5.17h58.41c15.16,0,34.28,20.25,34.71,35.5-2.34,21.1,5.43,54.92-4.92,73.43-2.99,5.34-7.2,8.81-10.91,13.24l19.1,85.25h0ZM151.91,97.71h10.53c3.36,0,7.47-5.37,7.92-8.67.82-6.07.94-33.71-.23-39.23-.6-2.84-4.81-7.62-7.7-7.62h-10.53v55.52h.01Z"/>
          <path class="cls-1" d="M37.02,5.17v84.88c1.65.04,3.45.44,3.89-1.54L61.28,5.17h40.85l-27.45,103.71,27.45,103.71h-40.85l-20.56-84.43c-.27-1.8-3.7-1.14-3.7-.13v84.56H0V5.17h37.02Z"/>
        </g>
      </g>
    </g>
  </g>
</svg>