<?xml version="1.0" encoding="UTF-8"?>
<svg id="Layer_2" data-name="Layer 2" xmlns="http://www.w3.org/2000/svg" viewBox="0 0 2320.69 662.53">
  <defs>
    <style>
      .cls-1 {
        fill: #fff;
      }
    </style>
  </defs>
  <g id="Layer_1-2" data-name="Layer 1">
    <g>
      <g>
        <path d="M601.12,0l11.4,2.13c23.5,6.32,42.12,25.22,48.19,48.76l1.82,10.51v539.31c-.56,2.24-.58,4.58-1,6.88-4.47,24.29-23.74,45.16-47.39,51.99l-15.03,2.94H63.83l-13.42-2.54c-25.51-6.99-44.19-27.6-49.07-53.54-.41-2.16-.25-4.72-1.34-6.54V62.62c1.03-2.05.91-4.63,1.34-6.94C6.07,30.41,24.25,10,48.88,2.63L61.81,0h539.31ZM95.34,226.63v-54.34c0-2.08-3.24-7.4-4.84-8.9-9.38-8.82-24.72-3.87-27.38,8.59l-.11,124.34c2.73,18.73,29.04,19.04,32.33.38l.09-30.61,17.92-16.83c.52-.12,1.76,1.72,2.18,2.22,14.28,17,27.63,37.15,42.44,53.3,15.04,16.38,37.84-3.13,25.2-20.35l-47.01-56.8,42.82-42.41c12.43-14.92-5.79-33.6-20.8-22.01l-62.83,63.41h-.01ZM313.09,233.5c-.18-.75.25-.78.67-1.14,11.27-9.63,17.92-18.83,17.87-34.65-.06-20.61-21.86-36.06-40.95-37.34-20.2-1.36-41.89,1.06-62.24,0-9.7,1.02-15.31,7.63-15.96,17.17v115.97c.72,9.8,6.97,16.54,16.79,17.55,22.6-.93,46.21,1.26,68.69.02,16.95-.93,33.65-9.4,39.15-26.29,6.49-19.92.15-48.52-24.02-51.29h0ZM405.19,281.18l80.15-94.57c7.17-9.38,1.1-22.91-10.47-24.2l-101.34.05c-12.49,1.3-16.71,17.78-6.44,24.92,1,.69,4.97,2.5,5.99,2.5h66.45l-78.14,94.16c-7.92,10.03-1.73,24.78,10.88,26.22l102.16-.04c12.66-1.55,17.57-18.36,7.25-26.15-.99-.75-4.96-2.9-5.99-2.9h-70.5ZM607.99,162.4h-64.43c-.98,0-2.79,3.61-1.43,4.67l60.2,60.19c2.08,1.91,5.92.46,6.09-2.43l-.41-62.42h-.02ZM229.46,424.19c3.29-.09,6.62.12,9.91.02,16.35-.52,42.73,1.94,57.14-3.86,39.37-15.87,34.98-86.15-9.87-89.09-21.14-1.39-43.78,1.09-65.08,0-4.38.31-6.32,3.85-6.66,7.88l.02,131.3c.17,5.88,5.5,9.88,11.03,7,1.04-.54,3.51-3.17,3.51-4.17v-49.08h0ZM515.48,456.9c-.42.32-2.13-3.41-2.36-3.89-13.7-28.33-26.45-57.23-40.9-85.14-6.1-4.83-13.86.23-11.89,7.85l47.41,99.66c-5.19,15.56-11.66,30.2-31.03,22.52-2.71-1.08-5.9-3.65-8.68-3.85-7.84-.56-10.87,8.56-5.04,13.12,16.38,12.79,42.29,8.74,51.75-10.41l48.83-120.03c2.9-8.65-8.85-13.9-13.28-6.01l-34.82,86.18h.01ZM422.97,465.79v5.86c0,1.06,1.92,3.37,2.85,4.01,5.18,3.58,11.19-.17,11.68-6.04-1.02-21.44,1.38-44.15,0-65.44-1.7-26.28-22.48-38.31-47.06-37.37-7.8.3-28.81,3.34-34.75,8.08-5.2,4.15-2.24,12.8,4.44,12.96,2.75.06,9.66-3.12,13.05-3.95,12.97-3.18,33.84-5.2,43.7,5.75,2.66,2.95,6.07,10.17,6.07,14.13v9.9c-26.52-5.49-75.72-10.35-80.75,26.51-6.06,44.4,56.77,51.33,79.61,26.29.36-.39.35-.86,1.14-.68h.02ZM63.43,477.1h64.84c.81,0,1.98-3.18,1.23-4.06l-61.24-61.16c-2.23-.77-4.98.26-5.25,2.79l.42,62.43h0Z"/>
        <path class="cls-1" d="M515.48,456.9l34.82-86.18c4.43-7.89,16.18-2.65,13.28,6.01l-48.83,120.03c-9.47,19.14-35.37,23.19-51.75,10.41-5.83-4.55-2.8-13.68,5.04-13.12,2.77.2,5.96,2.77,8.68,3.85,19.37,7.68,25.85-6.96,31.03-22.52l-47.41-99.66c-1.97-7.62,5.79-12.68,11.89-7.85,14.45,27.91,27.2,56.81,40.9,85.14.23.48,1.94,4.21,2.36,3.89h-.01Z"/>
        <path class="cls-1" d="M63.43,477.1l-.42-62.43c.27-2.53,3.03-3.56,5.25-2.79l61.24,61.16c.75.88-.42,4.06-1.23,4.06H63.43h0Z"/>
        <g>
          <path class="cls-1" d="M422.97,465.79c-.78-.18-.78.29-1.14.68-22.84,25.05-85.67,18.11-79.61-26.29,5.03-36.86,54.23-31.99,80.75-26.51v-9.9c0-3.96-3.41-11.17-6.07-14.13-9.86-10.96-30.73-8.93-43.7-5.75-3.38.83-10.3,4.02-13.05,3.95-6.68-.16-9.64-8.81-4.44-12.96,5.93-4.74,26.95-7.78,34.75-8.08,24.57-.95,45.36,11.09,47.06,37.37,1.37,21.29-1.02,44,0,65.44-.49,5.87-6.51,9.62-11.68,6.04-.93-.64-2.85-2.95-2.85-4.01v-5.86h-.02ZM388.55,421.88c-15.99.46-31.87,7.22-30.21,25.93.84,9.41,7.54,16.16,16.55,18.19,17.87,4.03,37.08-4.5,48-18.67-.41-6.04.82-13.47.1-19.33-.06-.49.02-.83-.42-1.2-.76-.63-12.92-3-14.87-3.31-6.03-.97-13.08-1.79-19.16-1.61h.01Z"/>
          <path d="M388.55,421.88c6.07-.18,13.12.64,19.16,1.61,1.95.31,14.11,2.68,14.87,3.31.44.37.36.71.42,1.2.72,5.86-.51,13.3-.1,19.33-10.92,14.17-30.12,22.7-48,18.67-9.01-2.03-15.72-8.78-16.55-18.19-1.66-18.71,14.22-25.47,30.21-25.93h-.01Z"/>
        </g>
        <g>
          <path class="cls-1" d="M95.34,226.63l62.83-63.41c15.02-11.59,33.23,7.09,20.8,22.01l-42.82,42.41,47.01,56.8c12.65,17.22-10.16,36.73-25.2,20.35-14.81-16.14-28.16-36.3-42.44-53.3-.42-.5-1.66-2.34-2.18-2.22l-17.92,16.83-.09,30.61c-3.29,18.66-29.6,18.35-32.33-.38l.11-124.34c2.66-12.46,18-17.41,27.38-8.59,1.59,1.5,4.84,6.82,4.84,8.9v54.34h.01Z"/>
          <path class="cls-1" d="M405.19,281.18h70.49c1.03,0,5,2.15,5.99,2.9,10.32,7.79,5.42,24.59-7.25,26.15l-102.16.04c-12.61-1.44-18.8-16.19-10.88-26.22l78.14-94.16h-66.45c-1.02,0-4.99-1.8-5.99-2.5-10.27-7.14-6.05-23.62,6.44-24.92l101.34-.05c11.57,1.29,17.64,14.82,10.47,24.2l-80.15,94.57h.01Z"/>
          <path class="cls-1" d="M607.99,162.4l.41,62.42c-.16,2.89-4,4.34-6.09,2.43l-60.2-60.19c-1.36-1.06.46-4.67,1.43-4.67h64.45Z"/>
          <g>
            <path class="cls-1" d="M313.09,233.5c24.17,2.77,30.5,31.37,24.02,51.29-5.5,16.89-22.21,25.36-39.15,26.29-22.48,1.23-46.09-.95-68.69-.02-9.81-1.01-16.07-7.75-16.79-17.55v-115.97c.65-9.54,6.25-16.15,15.96-17.17,20.36,1.06,42.05-1.36,62.24,0,19.08,1.28,40.89,16.73,40.95,37.34.05,15.82-6.6,25.02-17.87,34.65-.42.36-.85.39-.67,1.14h0ZM245.62,221.38l36.96-.41c11.22-.74,17.12-6.33,15.96-17.97-.62-6.2-6.76-12.73-13.13-12.73h-39.79v31.11h0ZM245.62,281.18c1.73.32,3.43-.37,5.03-.42,13.23-.45,28.24.76,41.22-.39,20.6-1.84,17.56-30.7-.4-30.7h-45.25l-.61.61v30.9h0Z"/>
            <path d="M245.62,281.18v-30.9l.61-.61h45.25c17.96,0,21,28.86.4,30.7-12.98,1.16-27.99-.05-41.22.39-1.61.05-3.3.74-5.03.42h0Z"/>
            <path d="M245.62,221.38v-31.11h39.79c6.37,0,12.51,6.53,13.13,12.73,1.16,11.64-4.74,17.23-15.96,17.97l-36.96.41h0Z"/>
          </g>
        </g>
        <g>
          <path class="cls-1" d="M229.46,424.19v49.08c0,1-2.47,3.63-3.51,4.17-5.53,2.88-10.86-1.12-11.03-7l-.02-131.3c.35-4.03,2.28-7.57,6.66-7.88,21.3,1.09,43.93-1.39,65.08,0,44.85,2.94,49.24,73.22,9.87,89.09-14.41,5.81-40.79,3.34-57.14,3.86-3.3.1-6.62-.11-9.91-.02ZM229.46,345.82v63.22c1.79,1.45,4.64.24,6.65.19,14.78-.43,31.61,1.29,46.02-.04,22.55-2.07,30.26-25.23,25.1-44.79-2.19-8.29-11-18.59-20.2-18.59h-57.57,0Z"/>
          <path d="M229.46,345.82h57.57c9.2,0,18,10.29,20.2,18.59,5.17,19.56-2.55,42.72-25.1,44.79-14.41,1.32-31.24-.39-46.02.04-2.01.06-4.86,1.26-6.65-.19v-63.22h0Z"/>
        </g>
      </g>
      <g>
        <path d="M1491.59,61.41v539.31c-.56,2.25-.58,4.58-1,6.88-4.47,24.3-23.74,45.16-47.39,51.99l-15.03,2.94h-535.27l-13.42-2.54c-25.51-6.99-44.2-27.6-49.07-53.54-.4-2.16-.24-4.72-1.34-6.54V62.62c1.02-2.05.91-4.63,1.34-6.94,4.73-25.27,22.91-45.68,47.55-53.05l12.93-2.63h539.31l11.4,2.13c23.5,6.32,42.13,25.22,48.19,48.76l1.82,10.51h-.02Z"/>
        <path class="cls-1" d="M1099.64,382.48c-85.47-137.05,121.55-344.11,269.5-176.47,104.98,166.79-103.71,357.06-309.48,214.72-133.02-94.76-85.2-252.11-40.87-287.75,44.34-35.64,135.62-24.34,170.39,0-141.93,56.19-167.88,261.11-43.83,301.62,11.98,3.91,24.88,4.46,36.96.9,79.82-23.47,44.84-189.82-63.48-132.82-18.89,17.62-25.51,34.95-19.2,79.8h0Z"/>
        <path class="cls-1" d="M958.18,276.13s13.74,101.65,98.21,157.97c84.48,56.32,165.52,44.64,192.99,41.9-24.99,41-69.63,67.58-116.84,74.44-94.94,13.78-179.68-53.08-203.38-142.91-.22-.85-.44-1.7-.66-2.55-10.67-42.53-6.08-98.59,29.67-128.84h.01Z"/>
      </g>
      <g>
        <path d="M2320.67,61.41v539.31c-.56,2.25-.58,4.58-1,6.88-4.47,24.3-23.74,45.16-47.39,51.99l-15.03,2.94h-535.27l-13.42-2.54c-25.51-6.99-44.2-27.6-49.07-53.54-.4-2.16-.24-4.72-1.34-6.54V62.62c1.02-2.05.91-4.63,1.34-6.94,4.73-25.27,22.91-45.68,47.55-53.05L1719.97,0h539.31l11.4,2.13c23.5,6.32,42.13,25.22,48.19,48.76l1.82,10.51h-.02Z"/>
        <g id="UDIDGW">
          <g>
            <path class="cls-1" d="M2056.99,182.06c-20.11-7.99-43.3-12.31-64.95-13.88-22.89-1.66-44.2-1.34-57.59,20.23-22.54,36.3-8.59,107.2,1.25,146.92,1.47,5.94,5.25,14.99,5.81,20.57.34,3.35-.37,7.1-4.53,5.19-1.91-.88-14.26-19.32-16.38-22.54-26.24-40.01-60.28-105.16-43.01-153.57,25.2-70.62,145.11-62.88,198.57-33.64,52.8,28.88,27.45,79.23-12.6,104.83-24.33,15.55-59.41,30.76-87.17,38.82-13.3,3.86-24.12,8.84-29.71-8.24-5.24-16-5.43-50.07-1.47-66.48,12.98-53.76,71.93-31.23,109.53-35.58.73-.08,1.44-.02,1.98-.66l.27-1.98h0Z"/>
            <g>
              <g>
                <path class="cls-1" d="M2190.25,490.05h-21.77l-7.99-22.35-40.19.22-7.89,22.12h-21.11l39.21-98.98c5.88.6,12.81-.65,18.54,0,.95.11,1.74.06,2.21,1.08l38.97,97.89.02.02ZM2126.93,451.14h27.04l-14.17-36.28-12.87,36.28Z"/>
                <path class="cls-1" d="M2038.54,490.05h-19.79v-97.95l.99-.99h45.51c.2,0,1.12.6,1.95.68,1.46.15,2.89-.14,4.47.14,34.24,6.15,28.8,60.52-5.11,60.52h-27.04l-.99.99v36.61h.01ZM2038.54,435.97h22.1c.65,0,6.38-1.63,7.17-2.07,8.25-4.56,8.89-17.92,1.04-23.28-2.26-1.54-7.57-3.01-10.18-3.01h-19.13l-.99.99v27.37h-.01Z"/>
                <path class="cls-1" d="M2201.14,391.11c1.21,1.05,1.98,2.44,2.84,3.76,6.77,10.37,12.81,24.51,20.03,34.06.43.57.61,1.31,1.53,1.11l22.1-38.92h23.09l-36.28,57.71v41.22h-19.79v-41.88l-35.62-57.06h22.1,0Z"/>
              </g>
              <g>
                <path class="cls-1" d="M1807.03,490.05h-20.78l-8.84-22.02-40.21-.32-8,22.34h-21.11l39.22-98.99c5.88.61,12.8-.65,18.53,0,.94.11,1.74.06,2.22,1.08l38.97,97.89v.02ZM1743.7,451.14h27.04l-13.53-36.28-13.51,36.28Z"/>
                <path class="cls-1" d="M1875.62,490.05l38.35-98.85,20.05-.14,40.54,98.99h-21.77l-8.56-22.11h-39.6l-7.9,22.11h-21.11ZM1911.24,451.14h26.38l-12.87-36.28c-1.12-.14-1.31.84-1.68,1.62-3.2,6.66-9.6,24.35-11.37,31.51-.26,1.06-.65,2.03-.47,3.16h.01Z"/>
                <path class="cls-1" d="M1818.9,391.11l22.76,38.92,1.53-1.11,22.21-37.82h22.1l-36.28,57.71v41.22h-19.79c-.18-.48.66-.79.66-.99v-39.58l-36.28-58.37h23.09v.02Z"/>
              </g>
            </g>
          </g>
        </g>
      </g>
    </g>
  </g>
</svg>